<svg xmlns="http://www.w3.org/2000/svg" xmlns:xlink="http://www.w3.org/1999/xlink" width="1889" zoomAndPan="magnify" viewBox="0 0 1417.5 368.250002" height="491" preserveAspectRatio="xMidYMid meet" version="1.0"><defs><g/></defs><g fill="#ffffff" fill-opacity="1"><g transform="translate(3.934149, 235.369672)"><g><path d="M 143.710938 -108.378906 L 143.710938 -102.601562 L 174.289062 -102.601562 L 174.289062 -7.132812 C 162.738281 -2.71875 147.449219 0.679688 130.460938 0.679688 C 77.460938 0.679688 38.390625 -25.820312 38.390625 -105.660156 C 38.390625 -193.652344 94.449219 -211.660156 130.460938 -211.660156 C 170.550781 -211.660156 192.632812 -202.148438 192.632812 -202.148438 L 192.632812 -208.941406 C 192.632812 -208.941406 169.191406 -217.097656 130.460938 -217.097656 C 69.308594 -217.097656 13.589844 -184.480469 13.589844 -105.660156 C 13.589844 -14.949219 84.597656 6.457031 127.402344 6.457031 C 169.871094 6.457031 198.410156 -11.550781 198.410156 -11.550781 L 198.410156 -108.378906 Z M 143.710938 -108.378906 "/></g></g></g><g fill="#ffffff" fill-opacity="1"><g transform="translate(99.034894, 351.744818)"><g><path d="M 234.320312 -218.582031 L 233.632812 -218.582031 L 137.511719 -36.601562 L 42.757812 -218.582031 L 41.734375 -218.582031 L 12.316406 0.34375 L 17.789062 0.34375 L 40.707031 -169.324219 L 125.882812 -5.472656 L 127.25 -5.472656 L 215.164062 -172.0625 L 235.34375 0.34375 L 259.972656 0.34375 Z M 234.320312 -218.582031 "/></g></g></g><g fill="#ffffff" fill-opacity="1"><g transform="translate(376.554657, 145.823217)"><g><path d="M 50.421875 1.15625 C 43.515625 1.15625 37.28125 0.140625 31.71875 -1.890625 C 26.15625 -3.929688 21.4375 -6.847656 17.5625 -10.640625 C 13.6875 -14.441406 10.691406 -19.046875 8.578125 -24.453125 C 6.460938 -29.867188 5.40625 -35.957031 5.40625 -42.71875 C 5.40625 -49.695312 6.535156 -56.082031 8.796875 -61.875 C 11.066406 -67.675781 14.234375 -72.644531 18.296875 -76.78125 C 22.367188 -80.925781 27.242188 -84.128906 32.921875 -86.390625 C 38.597656 -88.660156 44.894531 -89.796875 51.8125 -89.796875 C 56.5625 -89.796875 61.085938 -89.144531 65.390625 -87.84375 C 69.691406 -86.539062 74.335938 -84.429688 79.328125 -81.515625 L 81.515625 -88.640625 L 85.65625 -88.640625 L 85.65625 -59.515625 L 79.890625 -59.515625 C 78.359375 -66.734375 75.269531 -72.335938 70.625 -76.328125 C 65.988281 -80.316406 60.175781 -82.3125 53.1875 -82.3125 C 44.363281 -82.3125 37.515625 -78.914062 32.640625 -72.125 C 27.765625 -65.332031 25.328125 -55.832031 25.328125 -43.625 C 25.328125 -31.65625 27.707031 -22.484375 32.46875 -16.109375 C 37.226562 -9.742188 44.132812 -6.5625 53.1875 -6.5625 C 59.707031 -6.5625 64.789062 -8.226562 68.4375 -11.5625 C 72.082031 -14.90625 73.90625 -19.53125 73.90625 -25.4375 C 73.90625 -28.96875 72.984375 -31.554688 71.140625 -33.203125 C 69.304688 -34.859375 66.203125 -35.878906 61.828125 -36.265625 L 61.828125 -40.875 L 99.125 -40.875 L 99.125 -36.265625 C 95.363281 -36.265625 92.753906 -35.4375 91.296875 -33.78125 C 89.835938 -32.132812 89.109375 -29.160156 89.109375 -24.859375 L 89.109375 -9.5625 C 87.421875 -9.5625 86 -9.5 84.84375 -9.375 C 83.695312 -9.257812 82.566406 -9.03125 81.453125 -8.6875 C 80.335938 -8.34375 79.085938 -7.785156 77.703125 -7.015625 C 76.328125 -6.253906 74.601562 -5.257812 72.53125 -4.03125 C 66.625 -0.570312 59.253906 1.15625 50.421875 1.15625 Z M 50.421875 1.15625 "/></g></g></g><g fill="#ffffff" fill-opacity="1"><g transform="translate(477.398604, 145.823217)"><g><path d="M 33.046875 -49.046875 C 37.953125 -49.046875 41.898438 -49.195312 44.890625 -49.5 C 47.890625 -49.8125 50.210938 -50.445312 51.859375 -51.40625 C 53.515625 -52.363281 54.6875 -53.765625 55.375 -55.609375 C 56.0625 -57.453125 56.597656 -59.945312 56.984375 -63.09375 L 61.25 -63.09375 L 61.25 -29.359375 L 56.984375 -29.359375 C 56.523438 -32.429688 55.910156 -34.882812 55.140625 -36.71875 C 54.378906 -38.5625 53.148438 -39.960938 51.453125 -40.921875 C 49.765625 -41.878906 47.484375 -42.492188 44.609375 -42.765625 C 41.734375 -43.035156 37.878906 -43.171875 33.046875 -43.171875 L 33.046875 -19.453125 C 33.046875 -16.992188 33.367188 -14.921875 34.015625 -13.234375 C 34.671875 -11.546875 35.765625 -10.179688 37.296875 -9.140625 C 38.835938 -8.109375 40.875 -7.378906 43.40625 -6.953125 C 45.9375 -6.535156 49.046875 -6.328125 52.734375 -6.328125 C 57.109375 -6.328125 60.8125 -6.632812 63.84375 -7.25 C 66.875 -7.863281 69.382812 -8.9375 71.375 -10.46875 C 73.375 -12.007812 74.988281 -14.066406 76.21875 -16.640625 C 77.445312 -19.210938 78.484375 -22.453125 79.328125 -26.359375 L 83.921875 -26.359375 L 82.078125 0 L 4.03125 0 L 4.03125 -4.609375 C 6.5625 -4.679688 8.628906 -4.910156 10.234375 -5.296875 C 11.847656 -5.679688 13.078125 -6.332031 13.921875 -7.25 C 14.773438 -8.175781 15.351562 -9.484375 15.65625 -11.171875 C 15.96875 -12.859375 16.125 -15.046875 16.125 -17.734375 L 16.125 -70.921875 C 16.125 -73.609375 15.988281 -75.773438 15.71875 -77.421875 C 15.445312 -79.066406 14.925781 -80.367188 14.15625 -81.328125 C 13.394531 -82.296875 12.300781 -82.953125 10.875 -83.296875 C 9.457031 -83.640625 7.597656 -83.890625 5.296875 -84.046875 L 5.296875 -88.640625 L 78.0625 -88.640625 L 78.859375 -66.078125 L 73.90625 -66.078125 C 73.445312 -69.304688 72.71875 -71.972656 71.71875 -74.078125 C 70.71875 -76.191406 69.335938 -77.878906 67.578125 -79.140625 C 65.816406 -80.410156 63.535156 -81.296875 60.734375 -81.796875 C 57.929688 -82.296875 54.492188 -82.546875 50.421875 -82.546875 L 37.421875 -82.546875 C 35.421875 -82.546875 34.191406 -82.296875 33.734375 -81.796875 C 33.273438 -81.296875 33.046875 -80.125 33.046875 -78.28125 Z M 33.046875 -49.046875 "/></g></g></g><g fill="#ffffff" fill-opacity="1"><g transform="translate(565.349255, 145.823217)"><g><path d="M 54.34375 -89.796875 C 61.25 -89.796875 67.691406 -88.601562 73.671875 -86.21875 C 79.660156 -83.84375 84.863281 -80.582031 89.28125 -76.4375 C 93.695312 -72.289062 97.171875 -67.414062 99.703125 -61.8125 C 102.234375 -56.21875 103.5 -50.15625 103.5 -43.625 C 103.5 -37.414062 102.210938 -31.582031 99.640625 -26.125 C 97.066406 -20.675781 93.570312 -15.9375 89.15625 -11.90625 C 84.75 -7.882812 79.550781 -4.703125 73.5625 -2.359375 C 67.570312 -0.015625 61.164062 1.15625 54.34375 1.15625 C 47.507812 1.15625 41.097656 -0.015625 35.109375 -2.359375 C 29.128906 -4.703125 23.910156 -7.882812 19.453125 -11.90625 C 15.003906 -15.9375 11.515625 -20.675781 8.984375 -26.125 C 6.453125 -31.582031 5.1875 -37.414062 5.1875 -43.625 C 5.1875 -50.15625 6.453125 -56.21875 8.984375 -61.8125 C 11.515625 -67.414062 14.984375 -72.289062 19.390625 -76.4375 C 23.804688 -80.582031 29.007812 -83.84375 35 -86.21875 C 40.988281 -88.601562 47.4375 -89.796875 54.34375 -89.796875 Z M 54.34375 -6.328125 C 58.789062 -6.328125 62.816406 -7.191406 66.421875 -8.921875 C 70.035156 -10.648438 73.109375 -13.101562 75.640625 -16.28125 C 78.171875 -19.46875 80.109375 -23.34375 81.453125 -27.90625 C 82.796875 -32.476562 83.46875 -37.601562 83.46875 -43.28125 C 83.46875 -49.269531 82.796875 -54.660156 81.453125 -59.453125 C 80.109375 -64.253906 78.171875 -68.363281 75.640625 -71.78125 C 73.109375 -75.195312 70.035156 -77.804688 66.421875 -79.609375 C 62.816406 -81.410156 58.789062 -82.3125 54.34375 -82.3125 C 49.8125 -82.3125 45.757812 -81.410156 42.1875 -79.609375 C 38.625 -77.804688 35.570312 -75.195312 33.03125 -71.78125 C 30.5 -68.363281 28.5625 -64.253906 27.21875 -59.453125 C 25.882812 -54.660156 25.21875 -49.269531 25.21875 -43.28125 C 25.21875 -37.601562 25.882812 -32.476562 27.21875 -27.90625 C 28.5625 -23.34375 30.5 -19.46875 33.03125 -16.28125 C 35.570312 -13.101562 38.625 -10.648438 42.1875 -8.921875 C 45.757812 -7.191406 49.8125 -6.328125 54.34375 -6.328125 Z M 54.34375 -6.328125 "/></g></g></g><g fill="#ffffff" fill-opacity="1"><g transform="translate(673.906159, 145.823217)"><g/></g></g><g fill="#ffffff" fill-opacity="1"><g transform="translate(704.527727, 145.823217)"><g><path d="M 28.328125 -9.90625 L 28.328125 -35.34375 L 3.921875 -35.34375 L 3.921875 -42.484375 L 28.328125 -42.484375 L 28.328125 -67.921875 L 36.15625 -67.921875 L 36.15625 -42.484375 L 60.5625 -42.484375 L 60.5625 -35.34375 L 36.15625 -35.34375 L 36.15625 -9.90625 Z M 28.328125 -9.90625 "/></g></g></g><g fill="#ffffff" fill-opacity="1"><g transform="translate(768.994159, 145.823217)"><g/></g></g><g fill="#ffffff" fill-opacity="1"><g transform="translate(799.615704, 145.823217)"><g><path d="M 66.890625 -21.53125 L 93.484375 -88.640625 L 127.09375 -88.640625 L 127.09375 -84.046875 C 124.5625 -84.046875 122.507812 -83.796875 120.9375 -83.296875 C 119.363281 -82.796875 118.15625 -81.890625 117.3125 -80.578125 C 116.46875 -79.273438 115.910156 -77.492188 115.640625 -75.234375 C 115.367188 -72.972656 115.234375 -70.113281 115.234375 -66.65625 L 115.234375 -21.984375 C 115.234375 -18.148438 115.382812 -15.117188 115.6875 -12.890625 C 116 -10.671875 116.613281 -8.945312 117.53125 -7.71875 C 118.457031 -6.488281 119.785156 -5.679688 121.515625 -5.296875 C 123.242188 -4.910156 125.523438 -4.679688 128.359375 -4.609375 L 128.359375 0 L 85.078125 0 L 85.078125 -4.609375 C 87.921875 -4.679688 90.203125 -4.925781 91.921875 -5.34375 C 93.648438 -5.769531 94.992188 -6.554688 95.953125 -7.703125 C 96.910156 -8.859375 97.539062 -10.488281 97.84375 -12.59375 C 98.15625 -14.707031 98.3125 -17.570312 98.3125 -21.1875 L 98.3125 -75.0625 L 97.734375 -75.0625 L 66.765625 1.15625 L 58.25 1.15625 L 26.25 -75.0625 L 25.78125 -75.0625 L 25.78125 -21.984375 C 25.78125 -18.148438 25.929688 -15.117188 26.234375 -12.890625 C 26.546875 -10.671875 27.160156 -8.945312 28.078125 -7.71875 C 29.003906 -6.488281 30.332031 -5.679688 32.0625 -5.296875 C 33.789062 -4.910156 36.070312 -4.679688 38.90625 -4.609375 L 38.90625 0 L 3.453125 0 L 3.453125 -4.609375 C 6.296875 -4.679688 8.597656 -4.925781 10.359375 -5.34375 C 12.128906 -5.769531 13.492188 -6.554688 14.453125 -7.703125 C 15.410156 -8.859375 16.039062 -10.488281 16.34375 -12.59375 C 16.65625 -14.707031 16.8125 -17.570312 16.8125 -21.1875 L 16.8125 -67.46875 C 16.8125 -70.6875 16.65625 -73.367188 16.34375 -75.515625 C 16.039062 -77.671875 15.46875 -79.378906 14.625 -80.640625 C 13.78125 -81.910156 12.570312 -82.796875 11 -83.296875 C 9.425781 -83.796875 7.332031 -84.046875 4.71875 -84.046875 L 4.71875 -88.640625 L 39.609375 -88.640625 L 66.421875 -21.53125 Z M 66.890625 -21.53125 "/></g></g></g><g fill="#ffffff" fill-opacity="1"><g transform="translate(931.426581, 145.823217)"><g><path d="M 62.171875 -10.703125 C 55.179688 -2.796875 46.46875 1.15625 36.03125 1.15625 C 31.269531 1.15625 26.953125 0.40625 23.078125 -1.09375 C 19.203125 -2.59375 15.882812 -4.703125 13.125 -7.421875 C 10.363281 -10.148438 8.210938 -13.394531 6.671875 -17.15625 C 5.140625 -20.914062 4.375 -25.097656 4.375 -29.703125 C 4.375 -34.460938 5.175781 -38.816406 6.78125 -42.765625 C 8.394531 -46.722656 10.679688 -50.140625 13.640625 -53.015625 C 16.597656 -55.890625 20.085938 -58.132812 24.109375 -59.75 C 28.140625 -61.363281 32.578125 -62.171875 37.421875 -62.171875 C 45.554688 -62.171875 51.882812 -59.984375 56.40625 -55.609375 C 60.9375 -51.234375 63.203125 -45.09375 63.203125 -37.1875 C 63.203125 -35.957031 63.007812 -35.207031 62.625 -34.9375 C 62.238281 -34.664062 61.164062 -34.53125 59.40625 -34.53125 L 22.328125 -34.53125 C 22.023438 -33.84375 21.875 -32.578125 21.875 -30.734375 C 21.875 -23.210938 23.503906 -17.265625 26.765625 -12.890625 C 30.023438 -8.515625 34.457031 -6.328125 40.0625 -6.328125 C 43.289062 -6.328125 46.492188 -7.054688 49.671875 -8.515625 C 52.859375 -9.972656 55.945312 -12.046875 58.9375 -14.734375 Z M 39.828125 -40.984375 C 42.898438 -40.984375 44.878906 -41.15625 45.765625 -41.5 C 46.648438 -41.84375 47.09375 -42.671875 47.09375 -43.984375 C 47.09375 -47.359375 46.128906 -50.117188 44.203125 -52.265625 C 42.285156 -54.410156 39.867188 -55.484375 36.953125 -55.484375 C 33.648438 -55.484375 30.710938 -54.117188 28.140625 -51.390625 C 25.578125 -48.671875 23.910156 -45.203125 23.140625 -40.984375 Z M 39.828125 -40.984375 "/></g></g></g><g fill="#ffffff" fill-opacity="1"><g transform="translate(998.771004, 145.823217)"><g/></g></g><g fill="#ffffff" fill-opacity="1"><g transform="translate(1029.392549, 145.823217)"><g><path d="M 3.796875 0 L 3.796875 -4.609375 C 6.410156 -4.679688 8.503906 -4.910156 10.078125 -5.296875 C 11.648438 -5.679688 12.875 -6.332031 13.75 -7.25 C 14.632812 -8.175781 15.226562 -9.484375 15.53125 -11.171875 C 15.84375 -12.859375 16 -15.046875 16 -17.734375 L 16 -70.921875 C 16 -73.609375 15.882812 -75.773438 15.65625 -77.421875 C 15.425781 -79.066406 14.945312 -80.367188 14.21875 -81.328125 C 13.488281 -82.296875 12.488281 -82.953125 11.21875 -83.296875 C 9.957031 -83.640625 8.289062 -83.890625 6.21875 -84.046875 L 6.21875 -88.640625 L 43.171875 -88.640625 C 54.765625 -88.640625 63.6875 -86.78125 69.9375 -83.0625 C 76.195312 -79.34375 79.328125 -74.03125 79.328125 -67.125 C 79.328125 -57.988281 72.765625 -51.539062 59.640625 -47.78125 L 59.640625 -47.3125 C 63.859375 -47.3125 67.675781 -46.71875 71.09375 -45.53125 C 74.507812 -44.34375 77.40625 -42.671875 79.78125 -40.515625 C 82.15625 -38.367188 83.992188 -35.835938 85.296875 -32.921875 C 86.609375 -30.003906 87.265625 -26.820312 87.265625 -23.375 C 87.265625 -19.457031 86.320312 -16.039062 84.4375 -13.125 C 82.5625 -10.207031 79.859375 -7.75 76.328125 -5.75 C 69.492188 -1.914062 60.09375 0 48.125 0 Z M 48.921875 -7.015625 C 61.285156 -7.015625 67.46875 -12.582031 67.46875 -23.71875 C 67.46875 -30.550781 65.238281 -35.539062 60.78125 -38.6875 C 58.476562 -40.289062 55.503906 -41.4375 51.859375 -42.125 C 48.210938 -42.820312 43.742188 -43.171875 38.453125 -43.171875 L 32.921875 -43.171875 L 32.921875 -20.140625 C 32.921875 -15.390625 34.148438 -12.015625 36.609375 -10.015625 C 39.066406 -8.015625 43.171875 -7.015625 48.921875 -7.015625 Z M 39.71875 -50.078125 C 43.175781 -50.078125 46.171875 -50.398438 48.703125 -51.046875 C 51.234375 -51.703125 53.378906 -52.644531 55.140625 -53.875 C 58.828125 -56.40625 60.671875 -60.359375 60.671875 -65.734375 C 60.671875 -71.335938 59.285156 -75.382812 56.515625 -77.875 C 53.753906 -80.375 49.304688 -81.625 43.171875 -81.625 L 35 -81.625 C 33.613281 -81.625 32.921875 -80.972656 32.921875 -79.671875 L 32.921875 -50.078125 Z M 39.71875 -50.078125 "/></g></g></g><g fill="#ffffff" fill-opacity="1"><g transform="translate(1121.142114, 145.823217)"><g><path d="M 29.703125 -17.84375 C 29.703125 -14.851562 29.835938 -12.492188 30.109375 -10.765625 C 30.378906 -9.035156 30.9375 -7.707031 31.78125 -6.78125 C 32.625 -5.863281 33.847656 -5.269531 35.453125 -5 C 37.066406 -4.738281 39.21875 -4.609375 41.90625 -4.609375 L 41.90625 0 L 3.453125 0 L 3.453125 -4.609375 C 5.753906 -4.753906 7.59375 -4.976562 8.96875 -5.28125 C 10.351562 -5.59375 11.390625 -6.207031 12.078125 -7.125 C 12.773438 -8.050781 13.21875 -9.378906 13.40625 -11.109375 C 13.601562 -12.835938 13.703125 -15.160156 13.703125 -18.078125 L 13.703125 -32.125 C 13.703125 -36.875 13.585938 -40.671875 13.359375 -43.515625 C 13.128906 -46.359375 12.628906 -48.546875 11.859375 -50.078125 C 11.085938 -51.609375 9.992188 -52.625 8.578125 -53.125 C 7.160156 -53.625 5.300781 -53.875 3 -53.875 L 3 -57.90625 L 26.015625 -62.171875 L 27.859375 -48.921875 L 28.328125 -48.921875 C 30.390625 -52.992188 33.109375 -56.21875 36.484375 -58.59375 C 39.867188 -60.976562 43.441406 -62.171875 47.203125 -62.171875 C 50.117188 -62.171875 52.5 -61.441406 54.34375 -59.984375 C 56.1875 -58.523438 57.109375 -56.679688 57.109375 -54.453125 C 57.109375 -51.992188 56.394531 -49.921875 54.96875 -48.234375 C 53.550781 -46.546875 51.613281 -45.703125 49.15625 -45.703125 C 48.007812 -45.703125 46.972656 -45.929688 46.046875 -46.390625 C 45.128906 -46.859375 44.304688 -47.378906 43.578125 -47.953125 C 42.847656 -48.523438 42.117188 -49.0625 41.390625 -49.5625 C 40.660156 -50.0625 39.910156 -50.3125 39.140625 -50.3125 C 37.679688 -50.3125 36.300781 -49.347656 35 -47.421875 C 33.695312 -45.503906 32.625 -42.9375 31.78125 -39.71875 C 31.164062 -37.414062 30.664062 -34.820312 30.28125 -31.9375 C 29.894531 -29.0625 29.703125 -26.207031 29.703125 -23.375 Z M 29.703125 -17.84375 "/></g></g><g transform="translate(1178.471228, 145.823217)"><g><path d="M 29.59375 -18.875 C 29.59375 -15.8125 29.707031 -13.359375 29.9375 -11.515625 C 30.164062 -9.671875 30.625 -8.25 31.3125 -7.25 C 32 -6.25 32.992188 -5.578125 34.296875 -5.234375 C 35.609375 -4.890625 37.378906 -4.679688 39.609375 -4.609375 L 39.609375 0 L 3.34375 0 L 3.34375 -4.609375 C 5.488281 -4.679688 7.234375 -4.925781 8.578125 -5.34375 C 9.921875 -5.769531 10.957031 -6.460938 11.6875 -7.421875 C 12.414062 -8.378906 12.910156 -9.722656 13.171875 -11.453125 C 13.441406 -13.179688 13.578125 -15.390625 13.578125 -18.078125 L 13.578125 -32.234375 C 13.578125 -36.679688 13.5 -40.34375 13.34375 -43.21875 C 13.195312 -46.101562 13.007812 -48.082031 12.78125 -49.15625 C 12.394531 -51.070312 11.53125 -52.335938 10.1875 -52.953125 C 8.84375 -53.566406 6.40625 -53.875 2.875 -53.875 L 2.875 -57.796875 L 29.59375 -62.171875 Z M 12.65625 -86.578125 C 12.65625 -89.109375 13.519531 -91.234375 15.25 -92.953125 C 16.976562 -94.679688 19.070312 -95.546875 21.53125 -95.546875 C 24.0625 -95.546875 26.191406 -94.679688 27.921875 -92.953125 C 29.648438 -91.234375 30.515625 -89.109375 30.515625 -86.578125 C 30.515625 -84.117188 29.648438 -82.023438 27.921875 -80.296875 C 26.191406 -78.566406 24.0625 -77.703125 21.53125 -77.703125 C 19.070312 -77.703125 16.976562 -78.566406 15.25 -80.296875 C 13.519531 -82.023438 12.65625 -84.117188 12.65625 -86.578125 Z M 12.65625 -86.578125 "/></g></g></g><g fill="#ffffff" fill-opacity="1"><g transform="translate(1220.029109, 145.823217)"><g><path d="M 55.375 -7.375 L 54.921875 -7.375 C 49.617188 -1.6875 42.75 1.15625 34.3125 1.15625 C 29.9375 1.15625 25.925781 0.390625 22.28125 -1.140625 C 18.632812 -2.679688 15.484375 -4.832031 12.828125 -7.59375 C 10.179688 -10.363281 8.128906 -13.644531 6.671875 -17.4375 C 5.210938 -21.238281 4.484375 -25.441406 4.484375 -30.046875 C 4.484375 -34.648438 5.234375 -38.910156 6.734375 -42.828125 C 8.234375 -46.742188 10.265625 -50.140625 12.828125 -53.015625 C 15.398438 -55.890625 18.472656 -58.132812 22.046875 -59.75 C 25.617188 -61.363281 29.472656 -62.171875 33.609375 -62.171875 C 37.453125 -62.171875 40.847656 -61.59375 43.796875 -60.4375 C 46.753906 -59.289062 49.347656 -57.332031 51.578125 -54.5625 L 52.03125 -54.5625 L 52.03125 -64.359375 C 52.03125 -68.878906 51.972656 -72.769531 51.859375 -76.03125 C 51.742188 -79.300781 51.570312 -81.429688 51.34375 -82.421875 C 50.957031 -84.035156 49.785156 -85.207031 47.828125 -85.9375 C 45.878906 -86.664062 42.867188 -87.03125 38.796875 -87.03125 L 38.796875 -90.953125 L 67.921875 -95.546875 L 67.921875 -29.703125 C 67.921875 -23.941406 67.976562 -19.507812 68.09375 -16.40625 C 68.207031 -13.300781 68.421875 -10.941406 68.734375 -9.328125 C 68.878906 -8.328125 69.101562 -7.519531 69.40625 -6.90625 C 69.71875 -6.289062 70.179688 -5.8125 70.796875 -5.46875 C 71.410156 -5.125 72.234375 -4.894531 73.265625 -4.78125 C 74.304688 -4.664062 75.632812 -4.609375 77.25 -4.609375 L 77.25 -0.109375 L 55.375 1.15625 Z M 51.8125 -33.046875 C 51.8125 -35.960938 51.503906 -38.664062 50.890625 -41.15625 C 50.273438 -43.65625 49.351562 -45.863281 48.125 -47.78125 C 46.738281 -50 44.972656 -51.679688 42.828125 -52.828125 C 40.679688 -53.984375 38.378906 -54.5625 35.921875 -54.5625 C 31.390625 -54.5625 27.929688 -52.488281 25.546875 -48.34375 C 23.171875 -44.207031 21.984375 -38.1875 21.984375 -30.28125 C 21.984375 -22.300781 23.171875 -16.160156 25.546875 -11.859375 C 27.929688 -7.554688 31.347656 -5.40625 35.796875 -5.40625 C 38.335938 -5.40625 40.757812 -6.054688 43.0625 -7.359375 C 45.363281 -8.671875 47.242188 -10.4375 48.703125 -12.65625 C 49.773438 -14.351562 50.5625 -16.445312 51.0625 -18.9375 C 51.5625 -21.425781 51.8125 -24.628906 51.8125 -28.546875 Z M 51.8125 -33.046875 "/></g></g></g><g fill="#ffffff" fill-opacity="1"><g transform="translate(1299.921408, 145.823217)"><g><path d="M 39.609375 -32.8125 C 33.160156 -29.894531 28.300781 -27.1875 25.03125 -24.6875 C 21.769531 -22.195312 20.140625 -19.609375 20.140625 -16.921875 C 20.140625 -14.691406 20.753906 -12.925781 21.984375 -11.625 C 23.210938 -10.320312 24.75 -9.671875 26.59375 -9.671875 C 28.4375 -9.671875 30.160156 -9.992188 31.765625 -10.640625 C 33.378906 -11.296875 34.757812 -12.160156 35.90625 -13.234375 C 37.0625 -14.304688 37.96875 -15.59375 38.625 -17.09375 C 39.28125 -18.59375 39.609375 -20.1875 39.609375 -21.875 Z M 39.609375 -38.90625 L 39.609375 -43.75 C 39.609375 -48.195312 38.820312 -51.4375 37.25 -53.46875 C 35.675781 -55.507812 33.238281 -56.53125 29.9375 -56.53125 C 27.707031 -56.53125 26.015625 -55.929688 24.859375 -54.734375 C 23.710938 -53.546875 22.640625 -51.570312 21.640625 -48.8125 C 20.953125 -46.894531 19.972656 -45.398438 18.703125 -44.328125 C 17.441406 -43.253906 15.695312 -42.71875 13.46875 -42.71875 C 11.320312 -42.71875 9.671875 -43.367188 8.515625 -44.671875 C 7.367188 -45.972656 6.796875 -47.8125 6.796875 -50.1875 C 6.796875 -53.875 8.804688 -56.789062 12.828125 -58.9375 C 16.859375 -61.09375 22.941406 -62.171875 31.078125 -62.171875 C 39.679688 -62.171875 45.820312 -60.613281 49.5 -57.5 C 53.1875 -54.394531 55.03125 -49.195312 55.03125 -41.90625 L 55.03125 -16.6875 C 55.03125 -10.164062 56.332031 -6.90625 58.9375 -6.90625 C 60.394531 -6.90625 61.738281 -7.40625 62.96875 -8.40625 L 64.703125 -5.0625 C 63.628906 -3.144531 61.957031 -1.628906 59.6875 -0.515625 C 57.425781 0.597656 54.875 1.15625 52.03125 1.15625 C 48.5 1.15625 45.8125 0.0820312 43.96875 -2.0625 C 42.132812 -4.21875 41.21875 -7.253906 41.21875 -11.171875 L 40.640625 -11.171875 C 38.410156 -7.179688 35.53125 -4.148438 32 -2.078125 C 28.46875 -0.00390625 24.441406 1.03125 19.921875 1.03125 C 15.078125 1.03125 11.195312 -0.328125 8.28125 -3.046875 C 5.375 -5.773438 3.921875 -9.328125 3.921875 -13.703125 C 3.921875 -17.078125 5.414062 -20.238281 8.40625 -23.1875 C 11.394531 -26.144531 16.382812 -29.046875 23.375 -31.890625 Z M 39.609375 -38.90625 "/></g></g></g><g fill="#ffffff" fill-opacity="1"><g transform="translate(1365.999499, 145.823217)"><g><path d="M 28.4375 -18.875 C 28.4375 -15.8125 28.550781 -13.359375 28.78125 -11.515625 C 29.007812 -9.671875 29.46875 -8.25 30.15625 -7.25 C 30.851562 -6.25 31.851562 -5.578125 33.15625 -5.234375 C 34.457031 -4.890625 36.222656 -4.679688 38.453125 -4.609375 L 38.453125 0 L 2.1875 0 L 2.1875 -4.609375 C 4.332031 -4.679688 6.078125 -4.925781 7.421875 -5.34375 C 8.765625 -5.769531 9.800781 -6.460938 10.53125 -7.421875 C 11.257812 -8.378906 11.757812 -9.722656 12.03125 -11.453125 C 12.300781 -13.179688 12.4375 -15.390625 12.4375 -18.078125 L 12.4375 -65.625 C 12.4375 -70.070312 12.359375 -73.734375 12.203125 -76.609375 C 12.046875 -79.492188 11.851562 -81.472656 11.625 -82.546875 C 11.238281 -84.460938 10.375 -85.726562 9.03125 -86.34375 C 7.6875 -86.957031 5.253906 -87.265625 1.734375 -87.265625 L 1.734375 -91.171875 L 28.4375 -95.546875 Z M 28.4375 -18.875 "/></g></g></g><g fill="#ffffff" fill-opacity="1"><g transform="translate(405.529466, 311.217993)"><g><path d="M 29.046875 -90.0625 C 29.234375 -90.363281 29.632812 -90.617188 30.25 -90.828125 C 30.875 -91.035156 31.515625 -91.1875 32.171875 -91.28125 C 32.835938 -91.375 33.414062 -91.351562 33.90625 -91.21875 C 34.40625 -91.09375 34.617188 -90.859375 34.546875 -90.515625 C 34.128906 -88.773438 33.503906 -87.078125 32.671875 -85.421875 C 32.597656 -85.191406 32.460938 -84.90625 32.265625 -84.5625 C 29.128906 -77.300781 25.9375 -70.097656 22.6875 -62.953125 C 22.195312 -61.898438 21.742188 -60.863281 21.328125 -59.84375 C 20.148438 -57.414062 18.691406 -54.460938 16.953125 -50.984375 C 15.023438 -47.316406 13.363281 -43.953125 11.96875 -40.890625 C 13.289062 -42.484375 14.953125 -43.644531 16.953125 -44.375 C 18.960938 -45.113281 20.492188 -45.484375 21.546875 -45.484375 C 25.554688 -45.410156 27.769531 -43.425781 28.1875 -39.53125 C 28.832031 -35.101562 28.035156 -30.601562 25.796875 -26.03125 C 23.566406 -21.457031 20.617188 -17.710938 16.953125 -14.796875 C 13.859375 -13.054688 10.921875 -12.289062 8.140625 -12.5 C 5.359375 -12.707031 2.890625 -14.0625 0.734375 -16.5625 C 0.472656 -16.5625 0.203125 -16.4375 -0.078125 -16.1875 C -0.367188 -15.945312 -0.679688 -15.65625 -1.015625 -15.3125 C -1.429688 -14.820312 -1.882812 -14.441406 -2.375 -14.171875 C -2.71875 -14.023438 -3.078125 -13.988281 -3.453125 -14.0625 C -3.835938 -14.132812 -4.144531 -14.25 -4.375 -14.40625 C -5.195312 -15.082031 -5.457031 -15.914062 -5.15625 -16.90625 C -1.976562 -25.21875 1.753906 -33.875 6.046875 -42.875 C 10.335938 -51.875 14.632812 -60.644531 18.9375 -69.1875 C 20.757812 -73.007812 22.554688 -76.71875 24.328125 -80.3125 C 25.046875 -81.707031 25.75 -83.160156 26.4375 -84.671875 C 27.257812 -86.410156 28.128906 -88.207031 29.046875 -90.0625 Z M 14.796875 -38.625 C 11.890625 -36.539062 9.375 -34.003906 7.25 -31.015625 C 5.132812 -28.035156 4.378906 -24.878906 4.984375 -21.546875 C 5.285156 -19.617188 6.0625 -18.257812 7.3125 -17.46875 C 8.5625 -16.675781 10.019531 -16.957031 11.6875 -18.3125 C 13.34375 -19.863281 15.003906 -21.8125 16.671875 -24.15625 C 18.335938 -26.5 19.679688 -28.992188 20.703125 -31.640625 C 21.535156 -33.992188 22.035156 -36.035156 22.203125 -37.765625 C 22.367188 -39.503906 21.90625 -40.5625 20.8125 -40.9375 C 19.71875 -41.320312 17.710938 -40.550781 14.796875 -38.625 Z M 14.796875 -38.625 "/></g></g><g transform="translate(436.948698, 311.217993)"><g><path d="M 44.515625 -29.578125 C 45.015625 -28.609375 44.203125 -27.128906 42.078125 -25.140625 C 39.960938 -23.160156 36.238281 -20.753906 30.90625 -17.921875 C 28.90625 -17.085938 27.453125 -16.425781 26.546875 -15.9375 C 25.640625 -15.445312 24.976562 -14.820312 24.5625 -14.0625 C 24.144531 -13.3125 23.691406 -12.140625 23.203125 -10.546875 C 22.785156 -9.378906 22.234375 -7.8125 21.546875 -5.84375 C 20.640625 -3.425781 19.734375 -0.929688 18.828125 1.640625 C 17.160156 6.898438 15.179688 12.09375 12.890625 17.21875 C 10.609375 22.34375 7.648438 26.8125 4.015625 30.625 C 0.390625 34.445312 -4.273438 36.984375 -9.984375 38.234375 C -15.734375 39.328125 -21.289062 39.492188 -26.65625 38.734375 C -32.019531 37.984375 -37.273438 36.488281 -42.421875 34.25 C -44.503906 33.3125 -46.378906 32.066406 -48.046875 30.515625 C -50.796875 27.679688 -51 24.503906 -48.65625 20.984375 C -47.414062 19.242188 -45.960938 17.675781 -44.296875 16.28125 C -40.972656 13.59375 -37.492188 11.132812 -33.859375 8.90625 C -27.085938 4.820312 -20.164062 1.078125 -13.09375 -2.328125 C -6.03125 -5.734375 1.113281 -9.019531 8.34375 -12.1875 C 8.832031 -12.414062 9.378906 -12.664062 9.984375 -12.9375 C 11.953125 -13.84375 13.972656 -14.75 16.046875 -15.65625 C 17.484375 -16.1875 18.445312 -17.148438 18.9375 -18.546875 C 19.09375 -19.035156 19.132812 -19.488281 19.0625 -19.90625 C 18.976562 -20.164062 18.832031 -20.316406 18.625 -20.359375 C 18.414062 -20.398438 18.179688 -20.34375 17.921875 -20.1875 C 17.203125 -19.769531 16.460938 -19.296875 15.703125 -18.765625 C 15.296875 -18.546875 14.84375 -18.265625 14.34375 -17.921875 C 11.738281 -16.410156 9.035156 -15.75 6.234375 -15.9375 C 1.816406 -15.9375 -0.429688 -17.921875 -0.515625 -21.890625 C -0.585938 -25.140625 -0.03125 -28.21875 1.15625 -31.125 C 2.351562 -34.039062 4.046875 -36.785156 6.234375 -39.359375 C 6.460938 -39.628906 6.785156 -39.847656 7.203125 -40.015625 C 7.617188 -40.179688 8.035156 -40.300781 8.453125 -40.375 C 8.523438 -40.375 8.617188 -40.414062 8.734375 -40.5 C 9.566406 -40.570312 10.207031 -40.363281 10.65625 -39.875 C 11.113281 -39.382812 11.210938 -38.757812 10.953125 -38 C 10.453125 -36.9375 9.957031 -35.859375 9.46875 -34.765625 C 9.050781 -33.929688 8.632812 -33.097656 8.21875 -32.265625 C 6.5625 -29.015625 5.804688 -25.613281 5.953125 -22.0625 C 6.023438 -21.300781 6.351562 -20.75 6.9375 -20.40625 C 7.53125 -20.070312 8.207031 -20.078125 8.96875 -20.421875 C 11.195312 -21.328125 13.140625 -22.613281 14.796875 -24.28125 C 19.296875 -28.363281 23.003906 -33.066406 25.921875 -38.390625 C 26.335938 -39.148438 26.816406 -39.796875 27.359375 -40.328125 C 27.910156 -40.859375 28.640625 -41.160156 29.546875 -41.234375 C 30.722656 -41.347656 31.617188 -41.09375 32.234375 -40.46875 C 32.859375 -39.84375 33.039062 -39.019531 32.78125 -38 C 31.71875 -34.59375 30.601562 -31.226562 29.4375 -27.90625 C 29.363281 -27.632812 29.269531 -27.390625 29.15625 -27.171875 C 28.851562 -26.410156 28.566406 -25.613281 28.296875 -24.78125 C 28.035156 -23.945312 27.90625 -23.21875 27.90625 -22.59375 C 27.90625 -21.976562 28.171875 -21.671875 28.703125 -21.671875 C 30.773438 -22.085938 33.804688 -23.75 37.796875 -26.65625 C 41.785156 -29.570312 44.023438 -30.546875 44.515625 -29.578125 Z M 14.796875 -6.8125 C 14.796875 -7 14.851562 -7.164062 14.96875 -7.3125 C 15.195312 -7.726562 15.328125 -8.179688 15.359375 -8.671875 C 15.398438 -9.171875 15.269531 -9.679688 14.96875 -10.203125 C 14.707031 -10.203125 14.5 -10.203125 14.34375 -10.203125 C 13.820312 -10.085938 13.351562 -9.957031 12.9375 -9.8125 C 12.101562 -9.46875 11.269531 -9.085938 10.4375 -8.671875 C 3.78125 -5.609375 -2.875 -2.453125 -9.53125 0.796875 C -16.1875 4.046875 -22.707031 7.503906 -29.09375 11.171875 C -32.988281 13.398438 -36.65625 16.007812 -40.09375 19 C -42.894531 21.5 -44.238281 23.679688 -44.125 25.546875 C -44.007812 27.421875 -42.363281 29.113281 -39.1875 30.625 C -31.96875 34.363281 -24.195312 35.894531 -15.875 35.21875 C -10.207031 34.65625 -5.601562 32.519531 -2.0625 28.8125 C 1.46875 25.101562 4.359375 20.664062 6.609375 15.5 C 8.859375 10.34375 10.816406 5.195312 12.484375 0.0625 C 13.203125 -2.363281 13.972656 -4.65625 14.796875 -6.8125 Z M 14.796875 -6.8125 "/></g></g><g transform="translate(478.236064, 311.217993)"><g><path d="M 25.6875 -53.875 C 28.675781 -53.875 29.300781 -52.363281 27.5625 -49.34375 C 26.8125 -48.207031 26.019531 -47.128906 25.1875 -46.109375 C 24.539062 -45.203125 23.71875 -44.609375 22.71875 -44.328125 C 21.71875 -44.046875 20.757812 -44.109375 19.84375 -44.515625 C 19.09375 -44.816406 18.789062 -45.382812 18.9375 -46.21875 C 19.28125 -47.582031 19.695312 -48.960938 20.1875 -50.359375 C 21.207031 -52.859375 23.039062 -54.03125 25.6875 -53.875 Z M 13.71875 -12.078125 C 16.707031 -12.078125 17.296875 -10.566406 15.484375 -7.546875 C 14.804688 -6.410156 14.050781 -5.332031 13.21875 -4.3125 C 12.570312 -3.40625 11.75 -2.804688 10.75 -2.515625 C 9.75 -2.234375 8.796875 -2.300781 7.890625 -2.71875 C 7.128906 -3.019531 6.820312 -3.585938 6.96875 -4.421875 C 7.3125 -5.785156 7.726562 -7.164062 8.21875 -8.5625 C 9.238281 -11.0625 11.070312 -12.234375 13.71875 -12.078125 Z M 13.71875 -12.078125 "/></g></g><g transform="translate(499.900589, 311.217993)"><g/></g><g transform="translate(542.775932, 311.217993)"><g><path d="M 248.9375 -136.859375 C 248.664062 -136.179688 248.398438 -135.5 248.140625 -134.8125 C 245.492188 -127.9375 242.640625 -121.171875 239.578125 -114.515625 C 223.765625 -81.648438 206.785156 -49.867188 188.640625 -19.171875 C 182.742188 -9.265625 176.710938 0.46875 170.546875 10.03125 C 164.378906 19.601562 158.175781 29.132812 151.9375 38.625 C 150.46875 40.851562 148.976562 43.082031 147.46875 45.3125 C 147.382812 45.5 147.304688 45.632812 147.234375 45.71875 C 146.898438 46.394531 146.503906 46.957031 146.046875 47.40625 C 145.585938 47.863281 144.984375 48.09375 144.234375 48.09375 C 143.890625 48.09375 143.53125 48.003906 143.15625 47.828125 C 142.78125 47.660156 142.476562 47.445312 142.25 47.1875 C 142.0625 46.957031 141.925781 46.585938 141.84375 46.078125 C 141.769531 45.566406 141.8125 45.160156 141.96875 44.859375 C 142.988281 42.671875 144.117188 40.59375 145.359375 38.625 C 148.160156 34.050781 150.976562 29.476562 153.8125 24.90625 C 159.144531 16.394531 164.382812 7.863281 169.53125 -0.6875 C 180.945312 -19.738281 191.851562 -39.1875 202.25 -59.03125 C 212.644531 -78.882812 222.796875 -98.945312 232.703125 -119.21875 C 236.679688 -127.039062 239.953125 -135.414062 242.515625 -144.34375 C 243.046875 -145.894531 243.453125 -147.5 243.734375 -149.15625 C 244.023438 -150.820312 244.171875 -152.546875 244.171875 -154.328125 C 243.898438 -158.148438 242.269531 -159.8125 239.28125 -159.3125 C 236.632812 -158.789062 234.140625 -157.960938 231.796875 -156.828125 C 226.242188 -154.140625 220.765625 -151.171875 215.359375 -147.921875 C 186.316406 -130.296875 159.863281 -108.421875 136 -82.296875 C 135.664062 -81.878906 135.289062 -81.460938 134.875 -81.046875 C 126.632812 -72.085938 118.457031 -63.050781 110.34375 -53.9375 C 102.226562 -44.820312 94.351562 -35.445312 86.71875 -25.8125 C 85.132812 -23.800781 83.472656 -21.925781 81.734375 -20.1875 C 79.878906 -18.257812 77.664062 -17.503906 75.09375 -17.921875 C 74 -18.078125 73.097656 -18.613281 72.390625 -19.53125 C 71.691406 -20.457031 71.421875 -21.546875 71.578125 -22.796875 C 72.109375 -26.203125 72.863281 -29.492188 73.84375 -32.671875 C 76.90625 -42.722656 80.15625 -52.648438 83.59375 -62.453125 C 84.09375 -63.960938 84.550781 -65.414062 84.96875 -66.8125 C 85.875 -70.476562 87.15625 -73.863281 88.8125 -76.96875 C 88.8125 -77.039062 88.773438 -77.078125 88.703125 -77.078125 C 88.285156 -77.304688 87.867188 -77.484375 87.453125 -77.609375 C 87.035156 -77.742188 86.617188 -77.601562 86.203125 -77.1875 C 84.691406 -75.53125 83.238281 -73.789062 81.84375 -71.96875 C 70.34375 -56.394531 58.957031 -40.6875 47.6875 -24.84375 C 36.425781 -9 25.425781 7.109375 14.6875 23.484375 C 13.78125 25.066406 12.769531 26.359375 11.65625 27.359375 C 10.539062 28.367188 9.054688 28.703125 7.203125 28.359375 C 6.367188 28.128906 5.722656 27.617188 5.265625 26.828125 C 4.816406 26.035156 4.722656 25.257812 4.984375 24.5 C 5.972656 22.269531 7.050781 20.15625 8.21875 18.15625 C 11.550781 12.40625 14.84375 6.65625 18.09375 0.90625 C 24.632812 -10.476562 31.117188 -21.914062 37.546875 -33.40625 C 47.523438 -51.03125 56.429688 -69.578125 64.265625 -89.046875 C 67.328125 -96.535156 69.820312 -104.398438 71.75 -112.640625 C 72.800781 -117.023438 73.253906 -121.597656 73.109375 -126.359375 C 72.617188 -134.003906 70.082031 -139.46875 65.5 -142.75 C 60.925781 -146.039062 54.914062 -147.601562 47.46875 -147.4375 C 40.019531 -147.269531 31.757812 -145.75 22.6875 -142.875 C 13.613281 -140 4.3125 -136.195312 -5.21875 -131.46875 C -14.75 -126.738281 -23.9375 -121.519531 -32.78125 -115.8125 C -41.625 -110.101562 -49.492188 -104.316406 -56.390625 -98.453125 C -63.296875 -92.597656 -68.679688 -87.097656 -72.546875 -81.953125 C -76.585938 -76.285156 -80.023438 -70.046875 -82.859375 -63.234375 C -84.296875 -59.984375 -85.128906 -56.453125 -85.359375 -52.640625 C -85.429688 -51.878906 -85.804688 -51.304688 -86.484375 -50.921875 C -87.171875 -50.546875 -87.929688 -50.4375 -88.765625 -50.59375 C -90.085938 -51.007812 -90.914062 -52.046875 -91.25 -53.703125 C -91.476562 -55.898438 -91.3125 -57.90625 -90.75 -59.71875 C -89.5 -64.289062 -87.832031 -68.625 -85.75 -72.71875 C -81.9375 -79.863281 -76.132812 -87.160156 -68.34375 -94.609375 C -60.550781 -102.054688 -51.472656 -109.191406 -41.109375 -116.015625 C -30.753906 -122.835938 -19.941406 -128.921875 -8.671875 -134.265625 C 2.585938 -139.617188 13.601562 -143.78125 24.375 -146.75 C 35.15625 -149.71875 44.863281 -151.050781 53.5 -150.75 C 62.144531 -150.445312 68.960938 -148.070312 73.953125 -143.625 C 78.953125 -139.1875 81.375 -132.1875 81.21875 -122.625 C 80.957031 -116.457031 79.992188 -110.597656 78.328125 -105.046875 C 75.910156 -96.867188 73.117188 -88.972656 69.953125 -81.359375 C 66.796875 -73.742188 63.441406 -66.285156 59.890625 -58.984375 C 58.796875 -56.710938 58.5625 -55.601562 59.1875 -55.65625 C 59.8125 -55.71875 60.742188 -56.582031 61.984375 -58.25 C 66.484375 -64.21875 70.984375 -70.113281 75.484375 -75.9375 C 78.546875 -79.832031 81.664062 -83.65625 84.84375 -87.40625 C 85.257812 -87.925781 85.675781 -88.4375 86.09375 -88.9375 C 87.90625 -91.164062 90.097656 -92.65625 92.671875 -93.40625 C 94.597656 -93.820312 96.222656 -93.390625 97.546875 -92.109375 C 98.867188 -90.828125 99.328125 -88.898438 98.921875 -86.328125 C 98.835938 -86.054688 98.757812 -85.789062 98.6875 -85.53125 C 98.007812 -82.195312 97.21875 -78.960938 96.3125 -75.828125 C 93.882812 -68.148438 91.382812 -60.53125 88.8125 -52.96875 C 87.570312 -49.070312 86.328125 -45.125 85.078125 -41.125 C 84.804688 -40.550781 84.425781 -39.507812 83.9375 -38 C 83.445312 -36.675781 82.972656 -35.367188 82.515625 -34.078125 C 82.066406 -32.796875 81.710938 -31.816406 81.453125 -31.140625 C 81.785156 -31.398438 84.863281 -34.859375 90.6875 -41.515625 C 98.59375 -50.585938 107.953125 -61.210938 118.765625 -73.390625 C 129.578125 -85.566406 138.066406 -94.867188 144.234375 -101.296875 C 155.609375 -112.753906 167.601562 -123.179688 180.21875 -132.578125 C 192.832031 -141.972656 205.90625 -150.46875 219.4375 -158.0625 C 222.757812 -159.800781 226.179688 -161.375 229.703125 -162.78125 C 230.460938 -163.039062 231.203125 -163.34375 231.921875 -163.6875 C 235.242188 -165.007812 238.773438 -165.5 242.515625 -165.15625 C 249.703125 -164.476562 252.992188 -159.941406 252.390625 -151.546875 C 251.972656 -146.328125 250.820312 -141.429688 248.9375 -136.859375 Z M 88.421875 -77.421875 C 88.609375 -77.265625 88.738281 -77.148438 88.8125 -77.078125 C 88.8125 -77.078125 88.8125 -77.039062 88.8125 -76.96875 C 88.894531 -76.96875 88.9375 -77.003906 88.9375 -77.078125 C 88.78125 -77.148438 88.609375 -77.265625 88.421875 -77.421875 Z M 88.421875 -77.421875 "/></g></g><g transform="translate(756.52879, 311.217993)"><g><path d="M 32.328125 -21.78125 C 30.140625 -19.625 27.585938 -17.78125 24.671875 -16.25 C 21.753906 -14.71875 19.3125 -13.710938 17.34375 -13.234375 C 15.382812 -12.765625 13.363281 -12.492188 11.28125 -12.421875 C 7.957031 -12.265625 4.894531 -12.71875 2.09375 -13.78125 C -2.476562 -15.632812 -4.066406 -19.171875 -2.671875 -24.390625 C -1.347656 -28.890625 1.332031 -32.40625 5.375 -34.9375 C 9.425781 -37.46875 13.609375 -38.695312 17.921875 -38.625 C 17.921875 -38.625 17.957031 -38.625 18.03125 -38.625 C 19.132812 -38.695312 20.175781 -38.617188 21.15625 -38.390625 C 22.820312 -37.785156 23.878906 -36.800781 24.328125 -35.4375 C 24.785156 -34.082031 24.484375 -32.570312 23.421875 -30.90625 C 21.003906 -27.238281 17.71875 -25.195312 13.5625 -24.78125 C 10.800781 -24.519531 8.132812 -24.65625 5.5625 -25.1875 C 5.070312 -25.257812 4.632812 -25.125 4.25 -24.78125 C 3.875 -24.445312 3.648438 -24.03125 3.578125 -23.53125 C 2.816406 -20.28125 3.816406 -18.203125 6.578125 -17.296875 C 9.984375 -16.128906 13.519531 -16.128906 17.1875 -17.296875 C 21.414062 -18.617188 25.441406 -21.113281 29.265625 -24.78125 C 33.085938 -28.445312 35.289062 -30.15625 35.875 -29.90625 C 36.457031 -29.664062 36.632812 -28.960938 36.40625 -27.796875 C 35.882812 -25.941406 34.523438 -23.9375 32.328125 -21.78125 Z M 8.171875 -30.90625 C 7.941406 -30.644531 7.78125 -30.351562 7.6875 -30.03125 C 7.59375 -29.707031 7.710938 -29.414062 8.046875 -29.15625 C 9.367188 -28.394531 10.804688 -28.117188 12.359375 -28.328125 C 13.910156 -28.535156 15.222656 -29.117188 16.296875 -30.078125 C 17.378906 -31.046875 17.847656 -32.234375 17.703125 -33.640625 C 17.585938 -34.128906 17.320312 -34.4375 16.90625 -34.5625 C 16.488281 -34.695312 16.070312 -34.726562 15.65625 -34.65625 C 12.851562 -34.164062 10.359375 -32.914062 8.171875 -30.90625 Z M 8.171875 -30.90625 "/></g></g><g transform="translate(789.535998, 311.217993)"><g><path d="M 50.359375 -29.859375 C 51.160156 -29.648438 51.578125 -29.359375 51.609375 -28.984375 C 51.648438 -28.609375 51.671875 -28.421875 51.671875 -28.421875 C 50.765625 -26.828125 49.722656 -25.367188 48.546875 -24.046875 C 45.859375 -21.054688 42.738281 -18.675781 39.1875 -16.90625 C 37.445312 -15.914062 35.484375 -15.382812 33.296875 -15.3125 C 28.222656 -15.238281 25.894531 -17.695312 26.3125 -22.6875 C 26.5 -23.75 26.742188 -24.789062 27.046875 -25.8125 C 27.242188 -26.300781 27.378906 -26.789062 27.453125 -27.28125 C 27.941406 -29.09375 28.082031 -30.101562 27.875 -30.3125 C 27.664062 -30.519531 27.070312 -30 26.09375 -28.75 C 25.820312 -28.53125 25.578125 -28.285156 25.359375 -28.015625 C 23.835938 -26.203125 22.285156 -24.425781 20.703125 -22.6875 C 17.785156 -19.363281 14.457031 -16.566406 10.71875 -14.296875 C 8.488281 -12.972656 6.125 -12.269531 3.625 -12.1875 C -0.457031 -12 -2.742188 -13.875 -3.234375 -17.8125 C -3.421875 -19.394531 -3.34375 -20.960938 -3 -22.515625 C -1.34375 -28.941406 1.976562 -33.835938 6.96875 -37.203125 C 11.96875 -40.566406 17.679688 -41.757812 24.109375 -40.78125 C 25.921875 -40.25 27.242188 -40.738281 28.078125 -42.25 C 28.410156 -42.820312 28.75 -43.410156 29.09375 -44.015625 C 30.832031 -47.003906 32.535156 -49.988281 34.203125 -52.96875 C 37.335938 -58.71875 40.492188 -64.503906 43.671875 -70.328125 C 46.242188 -74.898438 48.816406 -79.515625 51.390625 -84.171875 C 52.140625 -85.609375 52.96875 -86.988281 53.875 -88.3125 C 54.289062 -88.945312 54.8125 -89.332031 55.4375 -89.46875 C 56.0625 -89.601562 56.710938 -89.671875 57.390625 -89.671875 C 57.546875 -89.671875 57.71875 -89.671875 57.90625 -89.671875 C 58.664062 -89.671875 59.269531 -89.476562 59.71875 -89.09375 C 60.175781 -88.71875 60.269531 -88.210938 60 -87.578125 C 59.507812 -85.984375 58.925781 -84.46875 58.25 -83.03125 C 54.769531 -76.070312 51.488281 -69.03125 48.40625 -61.90625 C 45.320312 -54.78125 42.289062 -47.601562 39.3125 -40.375 C 38.320312 -37.882812 37.316406 -35.390625 36.296875 -32.890625 C 35.046875 -29.984375 34.003906 -27 33.171875 -23.9375 C 32.953125 -23.25 32.84375 -22.570312 32.84375 -21.90625 C 32.84375 -21.25 33.160156 -20.675781 33.796875 -20.1875 C 34.210938 -19.925781 34.644531 -19.878906 35.09375 -20.046875 C 35.550781 -20.210938 36.046875 -20.410156 36.578125 -20.640625 C 36.660156 -20.753906 36.773438 -20.847656 36.921875 -20.921875 C 40.515625 -23.003906 43.804688 -25.503906 46.796875 -28.421875 C 47.285156 -28.910156 47.800781 -29.320312 48.34375 -29.65625 C 48.894531 -30 49.566406 -30.066406 50.359375 -29.859375 Z M 22.34375 -33.515625 C 22.757812 -34.203125 22.878906 -34.851562 22.703125 -35.46875 C 22.535156 -36.09375 22.113281 -36.554688 21.4375 -36.859375 C 20.039062 -37.617188 18.546875 -37.71875 16.953125 -37.15625 C 13.054688 -35.976562 9.796875 -33.742188 7.171875 -30.453125 C 4.546875 -27.160156 3.117188 -23.53125 2.890625 -19.5625 C 2.960938 -19.375 3 -19.242188 3 -19.171875 C 3 -18.828125 3 -18.488281 3 -18.15625 C 3.34375 -16.332031 4.46875 -15.976562 6.375 -17.09375 C 8.289062 -18.207031 10.425781 -20.015625 12.78125 -22.515625 C 15.144531 -25.015625 17.265625 -27.390625 19.140625 -29.640625 C 21.015625 -31.890625 22.082031 -33.179688 22.34375 -33.515625 Z M 22.34375 -33.515625 "/></g></g><g transform="translate(836.948413, 311.217993)"><g><path d="M 44.515625 -29.578125 C 45.015625 -28.609375 44.203125 -27.128906 42.078125 -25.140625 C 39.960938 -23.160156 36.238281 -20.753906 30.90625 -17.921875 C 28.90625 -17.085938 27.453125 -16.425781 26.546875 -15.9375 C 25.640625 -15.445312 24.976562 -14.820312 24.5625 -14.0625 C 24.144531 -13.3125 23.691406 -12.140625 23.203125 -10.546875 C 22.785156 -9.378906 22.234375 -7.8125 21.546875 -5.84375 C 20.640625 -3.425781 19.734375 -0.929688 18.828125 1.640625 C 17.160156 6.898438 15.179688 12.09375 12.890625 17.21875 C 10.609375 22.34375 7.648438 26.8125 4.015625 30.625 C 0.390625 34.445312 -4.273438 36.984375 -9.984375 38.234375 C -15.734375 39.328125 -21.289062 39.492188 -26.65625 38.734375 C -32.019531 37.984375 -37.273438 36.488281 -42.421875 34.25 C -44.503906 33.3125 -46.378906 32.066406 -48.046875 30.515625 C -50.796875 27.679688 -51 24.503906 -48.65625 20.984375 C -47.414062 19.242188 -45.960938 17.675781 -44.296875 16.28125 C -40.972656 13.59375 -37.492188 11.132812 -33.859375 8.90625 C -27.085938 4.820312 -20.164062 1.078125 -13.09375 -2.328125 C -6.03125 -5.734375 1.113281 -9.019531 8.34375 -12.1875 C 8.832031 -12.414062 9.378906 -12.664062 9.984375 -12.9375 C 11.953125 -13.84375 13.972656 -14.75 16.046875 -15.65625 C 17.484375 -16.1875 18.445312 -17.148438 18.9375 -18.546875 C 19.09375 -19.035156 19.132812 -19.488281 19.0625 -19.90625 C 18.976562 -20.164062 18.832031 -20.316406 18.625 -20.359375 C 18.414062 -20.398438 18.179688 -20.34375 17.921875 -20.1875 C 17.203125 -19.769531 16.460938 -19.296875 15.703125 -18.765625 C 15.296875 -18.546875 14.84375 -18.265625 14.34375 -17.921875 C 11.738281 -16.410156 9.035156 -15.75 6.234375 -15.9375 C 1.816406 -15.9375 -0.429688 -17.921875 -0.515625 -21.890625 C -0.585938 -25.140625 -0.03125 -28.21875 1.15625 -31.125 C 2.351562 -34.039062 4.046875 -36.785156 6.234375 -39.359375 C 6.460938 -39.628906 6.785156 -39.847656 7.203125 -40.015625 C 7.617188 -40.179688 8.035156 -40.300781 8.453125 -40.375 C 8.523438 -40.375 8.617188 -40.414062 8.734375 -40.5 C 9.566406 -40.570312 10.207031 -40.363281 10.65625 -39.875 C 11.113281 -39.382812 11.210938 -38.757812 10.953125 -38 C 10.453125 -36.9375 9.957031 -35.859375 9.46875 -34.765625 C 9.050781 -33.929688 8.632812 -33.097656 8.21875 -32.265625 C 6.5625 -29.015625 5.804688 -25.613281 5.953125 -22.0625 C 6.023438 -21.300781 6.351562 -20.75 6.9375 -20.40625 C 7.53125 -20.070312 8.207031 -20.078125 8.96875 -20.421875 C 11.195312 -21.328125 13.140625 -22.613281 14.796875 -24.28125 C 19.296875 -28.363281 23.003906 -33.066406 25.921875 -38.390625 C 26.335938 -39.148438 26.816406 -39.796875 27.359375 -40.328125 C 27.910156 -40.859375 28.640625 -41.160156 29.546875 -41.234375 C 30.722656 -41.347656 31.617188 -41.09375 32.234375 -40.46875 C 32.859375 -39.84375 33.039062 -39.019531 32.78125 -38 C 31.71875 -34.59375 30.601562 -31.226562 29.4375 -27.90625 C 29.363281 -27.632812 29.269531 -27.390625 29.15625 -27.171875 C 28.851562 -26.410156 28.566406 -25.613281 28.296875 -24.78125 C 28.035156 -23.945312 27.90625 -23.21875 27.90625 -22.59375 C 27.90625 -21.976562 28.171875 -21.671875 28.703125 -21.671875 C 30.773438 -22.085938 33.804688 -23.75 37.796875 -26.65625 C 41.785156 -29.570312 44.023438 -30.546875 44.515625 -29.578125 Z M 14.796875 -6.8125 C 14.796875 -7 14.851562 -7.164062 14.96875 -7.3125 C 15.195312 -7.726562 15.328125 -8.179688 15.359375 -8.671875 C 15.398438 -9.171875 15.269531 -9.679688 14.96875 -10.203125 C 14.707031 -10.203125 14.5 -10.203125 14.34375 -10.203125 C 13.820312 -10.085938 13.351562 -9.957031 12.9375 -9.8125 C 12.101562 -9.46875 11.269531 -9.085938 10.4375 -8.671875 C 3.78125 -5.609375 -2.875 -2.453125 -9.53125 0.796875 C -16.1875 4.046875 -22.707031 7.503906 -29.09375 11.171875 C -32.988281 13.398438 -36.65625 16.007812 -40.09375 19 C -42.894531 21.5 -44.238281 23.679688 -44.125 25.546875 C -44.007812 27.421875 -42.363281 29.113281 -39.1875 30.625 C -31.96875 34.363281 -24.195312 35.894531 -15.875 35.21875 C -10.207031 34.65625 -5.601562 32.519531 -2.0625 28.8125 C 1.46875 25.101562 4.359375 20.664062 6.609375 15.5 C 8.859375 10.34375 10.816406 5.195312 12.484375 0.0625 C 13.203125 -2.363281 13.972656 -4.65625 14.796875 -6.8125 Z M 14.796875 -6.8125 "/></g></g><g transform="translate(878.23578, 311.217993)"><g/></g><g transform="translate(921.111122, 311.217993)"><g><path d="M 248.9375 -136.859375 C 248.664062 -136.179688 248.398438 -135.5 248.140625 -134.8125 C 245.492188 -127.9375 242.640625 -121.171875 239.578125 -114.515625 C 223.765625 -81.648438 206.785156 -49.867188 188.640625 -19.171875 C 182.742188 -9.265625 176.710938 0.46875 170.546875 10.03125 C 164.378906 19.601562 158.175781 29.132812 151.9375 38.625 C 150.46875 40.851562 148.976562 43.082031 147.46875 45.3125 C 147.382812 45.5 147.304688 45.632812 147.234375 45.71875 C 146.898438 46.394531 146.503906 46.957031 146.046875 47.40625 C 145.585938 47.863281 144.984375 48.09375 144.234375 48.09375 C 143.890625 48.09375 143.53125 48.003906 143.15625 47.828125 C 142.78125 47.660156 142.476562 47.445312 142.25 47.1875 C 142.0625 46.957031 141.925781 46.585938 141.84375 46.078125 C 141.769531 45.566406 141.8125 45.160156 141.96875 44.859375 C 142.988281 42.671875 144.117188 40.59375 145.359375 38.625 C 148.160156 34.050781 150.976562 29.476562 153.8125 24.90625 C 159.144531 16.394531 164.382812 7.863281 169.53125 -0.6875 C 180.945312 -19.738281 191.851562 -39.1875 202.25 -59.03125 C 212.644531 -78.882812 222.796875 -98.945312 232.703125 -119.21875 C 236.679688 -127.039062 239.953125 -135.414062 242.515625 -144.34375 C 243.046875 -145.894531 243.453125 -147.5 243.734375 -149.15625 C 244.023438 -150.820312 244.171875 -152.546875 244.171875 -154.328125 C 243.898438 -158.148438 242.269531 -159.8125 239.28125 -159.3125 C 236.632812 -158.789062 234.140625 -157.960938 231.796875 -156.828125 C 226.242188 -154.140625 220.765625 -151.171875 215.359375 -147.921875 C 186.316406 -130.296875 159.863281 -108.421875 136 -82.296875 C 135.664062 -81.878906 135.289062 -81.460938 134.875 -81.046875 C 126.632812 -72.085938 118.457031 -63.050781 110.34375 -53.9375 C 102.226562 -44.820312 94.351562 -35.445312 86.71875 -25.8125 C 85.132812 -23.800781 83.472656 -21.925781 81.734375 -20.1875 C 79.878906 -18.257812 77.664062 -17.503906 75.09375 -17.921875 C 74 -18.078125 73.097656 -18.613281 72.390625 -19.53125 C 71.691406 -20.457031 71.421875 -21.546875 71.578125 -22.796875 C 72.109375 -26.203125 72.863281 -29.492188 73.84375 -32.671875 C 76.90625 -42.722656 80.15625 -52.648438 83.59375 -62.453125 C 84.09375 -63.960938 84.550781 -65.414062 84.96875 -66.8125 C 85.875 -70.476562 87.15625 -73.863281 88.8125 -76.96875 C 88.8125 -77.039062 88.773438 -77.078125 88.703125 -77.078125 C 88.285156 -77.304688 87.867188 -77.484375 87.453125 -77.609375 C 87.035156 -77.742188 86.617188 -77.601562 86.203125 -77.1875 C 84.691406 -75.53125 83.238281 -73.789062 81.84375 -71.96875 C 70.34375 -56.394531 58.957031 -40.6875 47.6875 -24.84375 C 36.425781 -9 25.425781 7.109375 14.6875 23.484375 C 13.78125 25.066406 12.769531 26.359375 11.65625 27.359375 C 10.539062 28.367188 9.054688 28.703125 7.203125 28.359375 C 6.367188 28.128906 5.722656 27.617188 5.265625 26.828125 C 4.816406 26.035156 4.722656 25.257812 4.984375 24.5 C 5.972656 22.269531 7.050781 20.15625 8.21875 18.15625 C 11.550781 12.40625 14.84375 6.65625 18.09375 0.90625 C 24.632812 -10.476562 31.117188 -21.914062 37.546875 -33.40625 C 47.523438 -51.03125 56.429688 -69.578125 64.265625 -89.046875 C 67.328125 -96.535156 69.820312 -104.398438 71.75 -112.640625 C 72.800781 -117.023438 73.253906 -121.597656 73.109375 -126.359375 C 72.617188 -134.003906 70.082031 -139.46875 65.5 -142.75 C 60.925781 -146.039062 54.914062 -147.601562 47.46875 -147.4375 C 40.019531 -147.269531 31.757812 -145.75 22.6875 -142.875 C 13.613281 -140 4.3125 -136.195312 -5.21875 -131.46875 C -14.75 -126.738281 -23.9375 -121.519531 -32.78125 -115.8125 C -41.625 -110.101562 -49.492188 -104.316406 -56.390625 -98.453125 C -63.296875 -92.597656 -68.679688 -87.097656 -72.546875 -81.953125 C -76.585938 -76.285156 -80.023438 -70.046875 -82.859375 -63.234375 C -84.296875 -59.984375 -85.128906 -56.453125 -85.359375 -52.640625 C -85.429688 -51.878906 -85.804688 -51.304688 -86.484375 -50.921875 C -87.171875 -50.546875 -87.929688 -50.4375 -88.765625 -50.59375 C -90.085938 -51.007812 -90.914062 -52.046875 -91.25 -53.703125 C -91.476562 -55.898438 -91.3125 -57.90625 -90.75 -59.71875 C -89.5 -64.289062 -87.832031 -68.625 -85.75 -72.71875 C -81.9375 -79.863281 -76.132812 -87.160156 -68.34375 -94.609375 C -60.550781 -102.054688 -51.472656 -109.191406 -41.109375 -116.015625 C -30.753906 -122.835938 -19.941406 -128.921875 -8.671875 -134.265625 C 2.585938 -139.617188 13.601562 -143.78125 24.375 -146.75 C 35.15625 -149.71875 44.863281 -151.050781 53.5 -150.75 C 62.144531 -150.445312 68.960938 -148.070312 73.953125 -143.625 C 78.953125 -139.1875 81.375 -132.1875 81.21875 -122.625 C 80.957031 -116.457031 79.992188 -110.597656 78.328125 -105.046875 C 75.910156 -96.867188 73.117188 -88.972656 69.953125 -81.359375 C 66.796875 -73.742188 63.441406 -66.285156 59.890625 -58.984375 C 58.796875 -56.710938 58.5625 -55.601562 59.1875 -55.65625 C 59.8125 -55.71875 60.742188 -56.582031 61.984375 -58.25 C 66.484375 -64.21875 70.984375 -70.113281 75.484375 -75.9375 C 78.546875 -79.832031 81.664062 -83.65625 84.84375 -87.40625 C 85.257812 -87.925781 85.675781 -88.4375 86.09375 -88.9375 C 87.90625 -91.164062 90.097656 -92.65625 92.671875 -93.40625 C 94.597656 -93.820312 96.222656 -93.390625 97.546875 -92.109375 C 98.867188 -90.828125 99.328125 -88.898438 98.921875 -86.328125 C 98.835938 -86.054688 98.757812 -85.789062 98.6875 -85.53125 C 98.007812 -82.195312 97.21875 -78.960938 96.3125 -75.828125 C 93.882812 -68.148438 91.382812 -60.53125 88.8125 -52.96875 C 87.570312 -49.070312 86.328125 -45.125 85.078125 -41.125 C 84.804688 -40.550781 84.425781 -39.507812 83.9375 -38 C 83.445312 -36.675781 82.972656 -35.367188 82.515625 -34.078125 C 82.066406 -32.796875 81.710938 -31.816406 81.453125 -31.140625 C 81.785156 -31.398438 84.863281 -34.859375 90.6875 -41.515625 C 98.59375 -50.585938 107.953125 -61.210938 118.765625 -73.390625 C 129.578125 -85.566406 138.066406 -94.867188 144.234375 -101.296875 C 155.609375 -112.753906 167.601562 -123.179688 180.21875 -132.578125 C 192.832031 -141.972656 205.90625 -150.46875 219.4375 -158.0625 C 222.757812 -159.800781 226.179688 -161.375 229.703125 -162.78125 C 230.460938 -163.039062 231.203125 -163.34375 231.921875 -163.6875 C 235.242188 -165.007812 238.773438 -165.5 242.515625 -165.15625 C 249.703125 -164.476562 252.992188 -159.941406 252.390625 -151.546875 C 251.972656 -146.328125 250.820312 -141.429688 248.9375 -136.859375 Z M 88.421875 -77.421875 C 88.609375 -77.265625 88.738281 -77.148438 88.8125 -77.078125 C 88.8125 -77.078125 88.8125 -77.039062 88.8125 -76.96875 C 88.894531 -76.96875 88.9375 -77.003906 88.9375 -77.078125 C 88.78125 -77.148438 88.609375 -77.265625 88.421875 -77.421875 Z M 88.421875 -77.421875 "/></g></g><g transform="translate(1134.86398, 311.217993)"><g><path d="M 41.140625 -28.890625 C 42.035156 -28.378906 42.101562 -27.144531 41.34375 -25.1875 C 40.25 -23.75 39.078125 -22.40625 37.828125 -21.15625 C 36.578125 -19.90625 35.21875 -18.789062 33.75 -17.8125 C 33.632812 -17.8125 33.578125 -17.773438 33.578125 -17.703125 C 32.597656 -17.015625 31.554688 -16.425781 30.453125 -15.9375 C 21.421875 -12.6875 16.8125 -14.597656 16.625 -21.671875 C 12.945312 -18.492188 10.488281 -16.546875 9.25 -15.828125 C 6.257812 -14.046875 3.023438 -13.25 -0.453125 -13.4375 C -3.023438 -13.59375 -4.773438 -14.378906 -5.703125 -15.796875 C -6.628906 -17.210938 -6.539062 -19.128906 -5.4375 -21.546875 C -3.78125 -25.367188 -1.421875 -28.773438 1.640625 -31.765625 C 5.234375 -35.085938 9.222656 -37.753906 13.609375 -39.765625 C 15.953125 -40.929688 18.410156 -41.382812 20.984375 -41.125 C 23.554688 -40.96875 25.109375 -39.507812 25.640625 -36.75 C 25.859375 -35.914062 25.648438 -35.179688 25.015625 -34.546875 C 24.179688 -33.785156 23.21875 -33.613281 22.125 -34.03125 C 22.039062 -34.03125 21.929688 -34.046875 21.796875 -34.078125 C 21.671875 -34.117188 21.570312 -34.175781 21.5 -34.25 C 20.394531 -35.769531 19.285156 -36.40625 18.171875 -36.15625 C 17.054688 -35.90625 15.878906 -35.40625 14.640625 -34.65625 C 8.816406 -31.25 4.484375 -26.503906 1.640625 -20.421875 C 1.492188 -20.148438 1.398438 -19.851562 1.359375 -19.53125 C 1.316406 -19.21875 1.410156 -18.960938 1.640625 -18.765625 C 2.328125 -18.546875 3.082031 -18.59375 3.90625 -18.90625 C 4.738281 -19.226562 5.570312 -19.703125 6.40625 -20.328125 C 7.238281 -20.953125 7.9375 -21.472656 8.5 -21.890625 C 8.582031 -22.003906 8.625 -22.0625 8.625 -22.0625 C 11.382812 -24.363281 14.085938 -26.726562 16.734375 -29.15625 C 17.898438 -30.40625 19.351562 -31.101562 21.09375 -31.25 C 23.59375 -31.25 24.632812 -30.132812 24.21875 -27.90625 C 23.988281 -27.070312 23.742188 -26.238281 23.484375 -25.40625 C 22.492188 -21.8125 22.453125 -19.703125 23.359375 -19.078125 C 24.273438 -18.460938 25.664062 -18.460938 27.53125 -19.078125 C 29.40625 -19.703125 31.273438 -20.894531 33.140625 -22.65625 C 35.015625 -24.414062 36.59375 -26.019531 37.875 -27.46875 C 39.164062 -28.925781 40.253906 -29.398438 41.140625 -28.890625 Z M 41.140625 -28.890625 "/></g></g><g transform="translate(1172.464975, 311.217993)"><g><path d="M 50.078125 -30.40625 C 50.378906 -30.476562 50.71875 -30.472656 51.09375 -30.390625 C 51.476562 -30.316406 51.765625 -30.148438 51.953125 -29.890625 C 52.179688 -29.472656 52.171875 -29.054688 51.921875 -28.640625 C 51.679688 -28.222656 51.3125 -27.898438 50.8125 -27.671875 C 47.414062 -26.015625 43.992188 -24.296875 40.546875 -22.515625 C 36.503906 -20.429688 32.441406 -18.351562 28.359375 -16.28125 C 27.753906 -16.050781 27.164062 -15.765625 26.59375 -15.421875 C 25.6875 -14.929688 24.78125 -14.476562 23.875 -14.0625 C 21.800781 -13.039062 20.421875 -11.453125 19.734375 -9.296875 C 17.921875 -4.160156 16.015625 0.941406 14.015625 6.015625 C 11.441406 12.785156 8.226562 19.234375 4.375 25.359375 C 2.21875 28.867188 -0.390625 31.984375 -3.453125 34.703125 C -7.128906 38.148438 -11.328125 40.328125 -16.046875 41.234375 C -23.878906 42.816406 -31.425781 42.304688 -38.6875 39.703125 C -41.664062 38.640625 -44.234375 36.9375 -46.390625 34.59375 C -49.304688 31.457031 -49.441406 28.09375 -46.796875 24.5 C -45.617188 22.988281 -44.3125 21.570312 -42.875 20.25 C -39.664062 17.332031 -36.1875 14.722656 -32.4375 12.421875 C -19.019531 3.835938 -5.238281 -4.0625 8.90625 -11.28125 C 8.976562 -11.28125 9.015625 -11.28125 9.015625 -11.28125 C 10.492188 -12.039062 11.953125 -12.835938 13.390625 -13.671875 C 13.609375 -13.859375 13.925781 -14.265625 14.34375 -14.890625 C 14.757812 -15.515625 15.070312 -16.140625 15.28125 -16.765625 C 15.488281 -17.390625 15.429688 -17.84375 15.109375 -18.125 C 14.796875 -18.40625 14.015625 -18.265625 12.765625 -17.703125 C 12.273438 -17.503906 11.820312 -17.296875 11.40625 -17.078125 C 10.300781 -16.546875 9.203125 -16.070312 8.109375 -15.65625 C 1.640625 -14.101562 -1.59375 -16.597656 -1.59375 -23.140625 C -1.4375 -27.078125 -0.253906 -30.625 1.953125 -33.78125 C 4.171875 -36.9375 7 -39.410156 10.4375 -41.203125 C 13.875 -43.003906 17.597656 -43.695312 21.609375 -43.28125 C 22.023438 -43.28125 22.441406 -43.222656 22.859375 -43.109375 C 23.953125 -42.953125 25.054688 -42.875 26.171875 -42.875 C 27.285156 -42.875 28.429688 -43.117188 29.609375 -43.609375 C 30.859375 -44.109375 31.789062 -43.96875 32.40625 -43.1875 C 33.03125 -42.414062 33.132812 -41.40625 32.71875 -40.15625 C 31.625 -37.8125 30.550781 -35.429688 29.5 -33.015625 C 28.738281 -31.535156 28.019531 -30.003906 27.34375 -28.421875 C 26.582031 -26.753906 25.84375 -25.050781 25.125 -23.3125 C 24.101562 -21.039062 23.953125 -19.847656 24.671875 -19.734375 C 25.390625 -19.617188 26.617188 -20.015625 28.359375 -20.921875 C 28.585938 -21.003906 28.832031 -21.082031 29.09375 -21.15625 C 32.269531 -22.664062 35.46875 -24.160156 38.6875 -25.640625 C 40.945312 -26.660156 43.195312 -27.695312 45.4375 -28.75 C 46.945312 -29.4375 48.492188 -29.988281 50.078125 -30.40625 Z M 9.75 0.0625 C 10.925781 -3.269531 11.425781 -5.453125 11.25 -6.484375 C 11.082031 -7.523438 10.351562 -7.800781 9.0625 -7.3125 C 7.78125 -6.820312 6.101562 -5.914062 4.03125 -4.59375 C 2.707031 -3.757812 1.25 -2.925781 -0.34375 -2.09375 C -9.90625 3.082031 -19.222656 8.617188 -28.296875 14.515625 C -32.304688 16.859375 -35.878906 19.695312 -39.015625 23.03125 C -42.347656 26.582031 -42.238281 29.738281 -38.6875 32.5 C -36.601562 34.164062 -34.285156 35.328125 -31.734375 35.984375 C -29.179688 36.648438 -26.375 36.984375 -23.3125 36.984375 C -19.71875 37.242188 -16.390625 36.578125 -13.328125 34.984375 C -10.265625 33.398438 -7.429688 31.019531 -4.828125 27.84375 C -3.273438 25.769531 -1.78125 23.613281 -0.34375 21.375 C 3.820312 14.570312 7.1875 7.46875 9.75 0.0625 Z M 6.015625 -20.015625 C 6.992188 -19.597656 8.421875 -19.957031 10.296875 -21.09375 C 12.171875 -22.226562 14.085938 -23.785156 16.046875 -25.765625 C 18.015625 -27.753906 19.570312 -29.789062 20.71875 -31.875 C 21.875 -33.957031 22.171875 -35.71875 21.609375 -37.15625 C 21.453125 -37.570312 21.207031 -37.945312 20.875 -38.28125 C 20.269531 -39 19.597656 -39.335938 18.859375 -39.296875 C 18.117188 -39.265625 17.332031 -39.132812 16.5 -38.90625 C 13.738281 -37.8125 11.300781 -35.929688 9.1875 -33.265625 C 7.070312 -30.597656 5.660156 -27.957031 4.953125 -25.34375 C 4.253906 -22.738281 4.609375 -20.960938 6.015625 -20.015625 Z M 6.015625 -20.015625 "/></g></g><g transform="translate(1220.898232, 311.217993)"><g><path d="M 27.453125 -28.75 C 21.472656 -26.519531 17.160156 -24.707031 14.515625 -23.3125 C 12.585938 -22.363281 11.484375 -21.578125 11.203125 -20.953125 C 10.921875 -20.328125 11.140625 -19.1875 11.859375 -17.53125 C 11.859375 -17.445312 11.914062 -17.332031 12.03125 -17.1875 C 12.851562 -15.175781 13.34375 -13.097656 13.5 -10.953125 C 13.757812 -6.597656 10.0625 -3.550781 2.40625 -1.8125 C -5.25 -0.0703125 -10.367188 -0.015625 -12.953125 -1.640625 C -15.546875 -3.265625 -16.34375 -5.320312 -15.34375 -7.8125 C -14.34375 -10.3125 -11.742188 -12.847656 -7.546875 -15.421875 C -3.347656 -17.992188 -0.539062 -19.847656 0.875 -20.984375 C 2.289062 -22.117188 2.71875 -23.382812 2.15625 -24.78125 C 1.96875 -25.269531 1.757812 -25.765625 1.53125 -26.265625 C 1.039062 -27.429688 0.53125 -28.640625 0 -29.890625 C -0.976562 -32.160156 -1.398438 -34.390625 -1.265625 -36.578125 C -1.140625 -38.773438 -0.332031 -40.617188 1.15625 -42.109375 C 2.65625 -43.609375 4.972656 -44.410156 8.109375 -44.515625 C 9.890625 -44.597656 11.476562 -44.363281 12.875 -43.8125 C 14.269531 -43.257812 15.382812 -42.25 16.21875 -40.78125 C 16.894531 -39.757812 16.6875 -38.832031 15.59375 -38 C 14.875 -37.4375 14.097656 -37.363281 13.265625 -37.78125 C 12.742188 -38 12.234375 -38.316406 11.734375 -38.734375 C 11.734375 -38.847656 11.734375 -38.90625 11.734375 -38.90625 C 11.515625 -39.0625 11.304688 -39.210938 11.109375 -39.359375 C 10.890625 -39.703125 10.644531 -39.96875 10.375 -40.15625 C 9.394531 -40.875 8.40625 -41.085938 7.40625 -40.796875 C 6.40625 -40.515625 5.65625 -39.753906 5.15625 -38.515625 C 4.820312 -37.523438 4.65625 -36.519531 4.65625 -35.5 C 4.726562 -34.257812 5.007812 -33.050781 5.5 -31.875 C 5.84375 -31.15625 6.144531 -30.492188 6.40625 -29.890625 C 7.050781 -28.222656 7.582031 -27.078125 8 -26.453125 C 8.414062 -25.828125 8.914062 -25.5625 9.5 -25.65625 C 10.082031 -25.757812 15.441406 -27.679688 25.578125 -31.421875 C 27.773438 -32.140625 28.398438 -31.25 27.453125 -28.75 Z M 2.890625 -7.09375 C 5.535156 -8 6.648438 -9.773438 6.234375 -12.421875 C 6.234375 -12.609375 6.195312 -12.816406 6.125 -13.046875 C 5.976562 -14.484375 5.675781 -15.585938 5.21875 -16.359375 C 4.757812 -17.140625 3.738281 -17.113281 2.15625 -16.28125 C -1.78125 -14.050781 -5.410156 -11.441406 -8.734375 -8.453125 C -8.960938 -8.179688 -9.171875 -7.9375 -9.359375 -7.71875 C -9.359375 -7.71875 -9.394531 -7.660156 -9.46875 -7.546875 C -9.695312 -7.242188 -9.734375 -6.898438 -9.578125 -6.515625 C -9.429688 -6.140625 -9.09375 -5.953125 -8.5625 -5.953125 C -4.664062 -5.347656 -0.847656 -5.726562 2.890625 -7.09375 Z M 2.890625 -7.09375 "/></g></g><g transform="translate(1246.022274, 311.217993)"><g><path d="M 22.546875 -23.890625 C 20.523438 -21.492188 18.132812 -19.296875 15.375 -17.296875 C 12.613281 -15.296875 9.492188 -13.941406 6.015625 -13.234375 C 2.535156 -12.535156 -0.164062 -12.789062 -2.09375 -14 C -4.019531 -15.21875 -4.398438 -17.90625 -3.234375 -22.0625 C -1.722656 -26.375 0.351562 -30.476562 3 -34.375 C 3.601562 -35.207031 4.472656 -35.789062 5.609375 -36.125 C 6.441406 -36.3125 7.171875 -36.171875 7.796875 -35.703125 C 8.421875 -35.234375 8.65625 -34.640625 8.5 -33.921875 C 7.9375 -32.554688 7.3125 -31.191406 6.625 -29.828125 C 5.945312 -28.472656 5.5 -27.585938 5.28125 -27.171875 C 3.957031 -24.742188 3.03125 -22.207031 2.5 -19.5625 C 2.5 -18.050781 4.519531 -17.957031 8.5625 -19.28125 C 12.613281 -20.601562 16.546875 -23.03125 20.359375 -26.5625 C 24.179688 -30.101562 26.003906 -31.144531 25.828125 -29.6875 C 25.660156 -28.226562 24.566406 -26.296875 22.546875 -23.890625 Z M 12.640625 -42.875 C 12.453125 -42.726562 12.066406 -42.550781 11.484375 -42.34375 C 10.898438 -42.132812 10.273438 -41.984375 9.609375 -41.890625 C 8.953125 -41.796875 8.429688 -41.898438 8.046875 -42.203125 C 7.671875 -42.503906 7.65625 -43.109375 8 -44.015625 C 8.601562 -45.597656 9.234375 -46.984375 9.890625 -48.171875 C 10.554688 -49.367188 11.421875 -50.6875 12.484375 -52.125 C 13.160156 -52.769531 13.894531 -53.117188 14.6875 -53.171875 C 15.476562 -53.222656 16.140625 -53.015625 16.671875 -52.546875 C 17.203125 -52.078125 17.351562 -51.425781 17.125 -50.59375 C 16.289062 -47.601562 14.796875 -45.03125 12.640625 -42.875 Z M 12.640625 -42.875 "/></g></g><g transform="translate(1268.140506, 311.217993)"><g><path d="M 45.140625 -29.78125 C 44.316406 -29.4375 43.445312 -29.148438 42.53125 -28.921875 C 42.3125 -28.804688 42.101562 -28.710938 41.90625 -28.640625 C 41 -28.296875 40.09375 -27.972656 39.1875 -27.671875 C 36.613281 -26.847656 33.988281 -25.960938 31.3125 -25.015625 C 29.300781 -24.441406 27.726562 -23.191406 26.59375 -21.265625 C 24.75 -18.273438 22.4375 -15.945312 19.65625 -14.28125 C 16.875 -12.625 14.046875 -11.445312 11.171875 -10.75 C 8.296875 -10.050781 5.753906 -9.613281 3.546875 -9.4375 C 1.335938 -9.269531 -0.0859375 -9.222656 -0.734375 -9.296875 C -0.804688 -9.296875 -0.898438 -9.296875 -1.015625 -9.296875 C -1.921875 -8.734375 -2.828125 -7.617188 -3.734375 -5.953125 C -4.648438 -4.285156 -5.445312 -2.789062 -6.125 -1.46875 C -6.28125 -1.132812 -6.394531 -0.832031 -6.46875 -0.5625 C -10.207031 6.914062 -13.910156 14.398438 -17.578125 21.890625 C -19.660156 26.046875 -21.742188 30.207031 -23.828125 34.375 C -24.503906 35.84375 -25.296875 37.257812 -26.203125 38.625 C -27.035156 39.6875 -28.078125 39.894531 -29.328125 39.25 C -30.160156 38.644531 -30.367188 37.8125 -29.953125 36.75 C -29.535156 35.65625 -29.078125 34.5625 -28.578125 33.46875 C -22.078125 18.070312 -15.179688 2.851562 -7.890625 -12.1875 C -5.617188 -16.84375 -3.476562 -21.59375 -1.46875 -26.4375 C -0.5625 -28.664062 0.378906 -30.953125 1.359375 -33.296875 C 1.429688 -33.523438 1.566406 -33.769531 1.765625 -34.03125 C 2.253906 -35.28125 2.835938 -36.488281 3.515625 -37.65625 C 3.816406 -38.070312 4.382812 -38.335938 5.21875 -38.453125 C 6.050781 -38.566406 6.769531 -38.453125 7.375 -38.109375 C 8.125 -37.617188 8.5 -36.882812 8.5 -35.90625 C 8.5 -35.414062 8.40625 -34.90625 8.21875 -34.375 C 8.070312 -33.957031 7.976562 -33.539062 7.9375 -33.125 C 7.90625 -32.707031 8.039062 -32.289062 8.34375 -31.875 C 8.945312 -31.800781 9.472656 -31.882812 9.921875 -32.125 C 10.378906 -32.375 10.816406 -32.671875 11.234375 -33.015625 C 11.648438 -33.347656 12.140625 -33.59375 12.703125 -33.75 C 13.046875 -33.9375 13.382812 -34.101562 13.71875 -34.25 C 15.539062 -35.082031 17.335938 -35.800781 19.109375 -36.40625 C 21.421875 -37.125 23.707031 -36.957031 25.96875 -35.90625 C 26.957031 -35.300781 27.695312 -34.5625 28.1875 -33.6875 C 28.675781 -32.820312 29.054688 -31.894531 29.328125 -30.90625 C 29.585938 -30.15625 30.273438 -29.757812 31.390625 -29.71875 C 32.503906 -29.675781 33.75 -29.816406 35.125 -30.140625 C 36.507812 -30.460938 37.769531 -30.796875 38.90625 -31.140625 C 39.851562 -31.398438 40.535156 -31.566406 40.953125 -31.640625 C 42.085938 -31.910156 43.238281 -31.988281 44.40625 -31.875 C 44.75 -31.875 45.0625 -31.816406 45.34375 -31.703125 C 45.625 -31.585938 45.765625 -31.285156 45.765625 -30.796875 C 45.765625 -30.609375 45.707031 -30.410156 45.59375 -30.203125 C 45.488281 -29.992188 45.335938 -29.851562 45.140625 -29.78125 Z M 21.328125 -26.03125 C 22.078125 -26.519531 22.535156 -27.332031 22.703125 -28.46875 C 22.878906 -29.601562 22.757812 -30.703125 22.34375 -31.765625 C 22.15625 -32.097656 21.898438 -32.332031 21.578125 -32.46875 C 21.253906 -32.601562 20.925781 -32.671875 20.59375 -32.671875 C 19.90625 -32.554688 19.242188 -32.347656 18.609375 -32.046875 C 11.609375 -28.523438 5.953125 -23.535156 1.640625 -17.078125 C 0.804688 -15.554688 0.910156 -14.878906 1.953125 -15.046875 C 2.992188 -15.222656 4.550781 -15.867188 6.625 -16.984375 C 8.707031 -18.097656 10.863281 -19.382812 13.09375 -20.84375 C 15.332031 -22.300781 17.242188 -23.539062 18.828125 -24.5625 C 20.265625 -25.46875 21.097656 -25.957031 21.328125 -26.03125 Z M 21.328125 -26.03125 "/></g></g><g transform="translate(1309.938293, 311.217993)"><g><path d="M 9.015625 -13.4375 L 8.84375 -13.4375 C 3.363281 -13.519531 -0.242188 -14.738281 -1.984375 -17.09375 C -3.722656 -19.457031 -3.648438 -22.609375 -1.765625 -26.546875 C -0.171875 -29.535156 1.832031 -32.144531 4.25 -34.375 C 5.082031 -35.125 5.929688 -35.722656 6.796875 -36.171875 C 7.671875 -36.628906 8.65625 -36.859375 9.75 -36.859375 C 10.394531 -36.972656 11.132812 -36.863281 11.96875 -36.53125 C 12.226562 -36.445312 12.492188 -36.347656 12.765625 -36.234375 C 13.398438 -36.347656 14.023438 -36.554688 14.640625 -36.859375 C 14.785156 -36.972656 14.988281 -37.070312 15.25 -37.15625 C 16.5 -37.644531 17.828125 -37.851562 19.234375 -37.78125 C 19.796875 -37.78125 20.378906 -37.78125 20.984375 -37.78125 C 23.210938 -37.4375 24.894531 -36.5 26.03125 -34.96875 C 27.164062 -33.4375 27.5625 -31.570312 27.21875 -29.375 C 27.03125 -28.050781 26.613281 -26.804688 25.96875 -25.640625 C 21.625 -17.847656 16.085938 -13.78125 9.359375 -13.4375 Z M 17.984375 -33.75 C 14.992188 -33.863281 12.332031 -33.003906 10 -31.171875 C 7.675781 -29.335938 5.945312 -27.226562 4.8125 -24.84375 C 3.6875 -22.457031 3.378906 -20.5 3.890625 -18.96875 C 4.398438 -17.4375 5.976562 -17.015625 8.625 -17.703125 C 11.613281 -18.609375 14.25 -20.304688 16.53125 -22.796875 C 18.820312 -25.296875 20.222656 -27.671875 20.734375 -29.921875 C 21.242188 -32.171875 20.328125 -33.445312 17.984375 -33.75 Z M 17.984375 -33.75 "/></g></g><g transform="translate(1340.053116, 311.217993)"><g><path d="M 40.890625 -29.546875 C 41.078125 -29.546875 41.289062 -29.5 41.53125 -29.40625 C 41.78125 -29.3125 41.984375 -29.191406 42.140625 -29.046875 C 42.671875 -28.546875 42.726562 -27.957031 42.3125 -27.28125 C 41.78125 -26.71875 41.269531 -26.226562 40.78125 -25.8125 C 37.863281 -23.125 34.628906 -20.875 31.078125 -19.0625 C 25.484375 -16.21875 19.320312 -14.757812 12.59375 -14.6875 C 10.09375 -14.613281 7.519531 -15.03125 4.875 -15.9375 C 0.0390625 -17.820312 -1.921875 -21.320312 -1.015625 -26.4375 C 0.078125 -31.15625 2.738281 -35.070312 6.96875 -38.1875 C 11.207031 -41.3125 15.75 -42.664062 20.59375 -42.25 C 21.5 -42.101562 22.40625 -41.894531 23.3125 -41.625 C 24.144531 -41.289062 24.769531 -40.789062 25.1875 -40.125 C 25.601562 -39.46875 25.640625 -38.929688 25.296875 -38.515625 C 24.390625 -37.523438 23.347656 -37.28125 22.171875 -37.78125 C 20.429688 -38.53125 18.832031 -38.734375 17.375 -38.390625 C 15.925781 -38.054688 14.460938 -37.265625 12.984375 -36.015625 C 11.546875 -34.921875 9.992188 -33.332031 8.328125 -31.25 C 6.671875 -29.164062 5.613281 -27.066406 5.15625 -24.953125 C 4.707031 -22.835938 5.65625 -21.117188 8 -19.796875 C 10.644531 -18.617188 13.347656 -18.332031 16.109375 -18.9375 C 22.992188 -20.34375 29.382812 -22.953125 35.28125 -26.765625 C 35.8125 -27.035156 36.285156 -27.335938 36.703125 -27.671875 C 37.335938 -28.171875 37.984375 -28.578125 38.640625 -28.890625 C 39.304688 -29.210938 40.054688 -29.429688 40.890625 -29.546875 Z M 40.890625 -29.546875 "/></g></g></g></svg>